inDegrees=no
num_controls=7
num_derivatives=13
num_iterations=141
num_multipliers=7
num_parameters=0
num_slacks=7
num_states=26
objective=0.444622
objective_accelerations=0.058730
objective_balance=0.003726
objective_effort=0.023731
objective_height=0.352899
objective_ligament=0.005536
solver_duration=1858.835779
status=Solve_Succeeded
success=true
DataType=double
version=3
OpenSimVersion=4.5
endheader
time	/jointset/ground_pelvis/pelvis_tilt/value	/jointset/ground_pelvis/pelvis_tx/value	/jointset/ground_pelvis/pelvis_ty/value	/jointset/hip_l/hip_flexion_l/value	/jointset/hip_l/hip_adduction_l/value	/jointset/hip_l/hip_rotation_l/value	/jointset/back/lumbar_extension/value	/jointset/patellofemoral_l/patellar_flexion_l/value	/jointset/knee_l/knee_flexion_l/value	/jointset/knee_l/knee_adduction_l/value	/jointset/knee_l/knee_rotation_l/value	/jointset/ankle_l/ankle_angle_l/value	/jointset/subtalar_l/subtalar_angle_l/value	/jointset/ground_pelvis/pelvis_tilt/speed	/jointset/ground_pelvis/pelvis_tx/speed	/jointset/ground_pelvis/pelvis_ty/speed	/jointset/hip_l/hip_flexion_l/speed	/jointset/hip_l/hip_adduction_l/speed	/jointset/hip_l/hip_rotation_l/speed	/jointset/back/lumbar_extension/speed	/jointset/patellofemoral_l/patellar_flexion_l/speed	/jointset/knee_l/knee_flexion_l/speed	/jointset/knee_l/knee_adduction_l/speed	/jointset/knee_l/knee_rotation_l/speed	/jointset/ankle_l/ankle_angle_l/speed	/jointset/subtalar_l/subtalar_angle_l/speed	/forceset/tau_hip_flexion_l	/forceset/tau_hip_adduction_l	/forceset/tau_hip_rotation_l	/forceset/tau_knee_flexion_l	/forceset/tau_ankle_angle_l	/forceset/tau_subtalar_angle_l	/forceset/tau_lumbar_extension	lambda_cid13_p0	lambda_cid13_p1	lambda_cid13_p2	lambda_cid13_p3	lambda_cid13_p4	lambda_cid13_p5	lambda_cid14_p0	/jointset/ground_pelvis/pelvis_tilt/accel	/jointset/ground_pelvis/pelvis_tx/accel	/jointset/ground_pelvis/pelvis_ty/accel	/jointset/hip_l/hip_flexion_l/accel	/jointset/hip_l/hip_adduction_l/accel	/jointset/hip_l/hip_rotation_l/accel	/jointset/back/lumbar_extension/accel	/jointset/patellofemoral_l/patellar_flexion_l/accel	/jointset/knee_l/knee_flexion_l/accel	/jointset/knee_l/knee_adduction_l/accel	/jointset/knee_l/knee_rotation_l/accel	/jointset/ankle_l/ankle_angle_l/accel	/jointset/subtalar_l/subtalar_angle_l/accel	gamma_cid13_p0	gamma_cid13_p1	gamma_cid13_p2	gamma_cid13_p3	gamma_cid13_p4	gamma_cid13_p5	gamma_cid14_p0
0	-0.03945541743568732	0.06888283707442897	0.8959480231278648	0.1955287580552426	-0.3220364098103995	-0.4828037086078787	-0.1379045077516729	0.07015288079084771	0.07015288079084844	-0.1745326492308354	-0.117299331840904	-0.06701059314715049	0.003780993607449251	0	0	0	0	0	0	0	0	0	0	0	0	0	0.1082252161388518	-0.1035973593950391	-0.03015567630365403	-0.2348623301611004	0.1898174563849418	-0.01200118320645344	-0.05321040550873771	25.39005656892932	-2.197724784682216	3.400316575702542	0.5463006101909252	-514.7856112654771	-83.80694360482723	-39.90059476511789	-4.660533932303131	-1.919466484947411	-1.001747041229987	12.95053428728019	-2.132351901760961	3.395770165381357	-2.849533235796427	10.36824842572948	10.36824842572953	0.712097113811	-0.856309566127758	2.288038533190102	-1.095398275342962	-2.574255512444719e-08	1.231363211199762e-07	1.180477841786388e-07	1.14089274041486e-08	-1.087481123218877e-08	-3.664021914471886e-08	-5.272944320779912e-09
0.01	-0.03967801627541791	0.06878827760889729	0.8958993829175905	0.1961552056639472	-0.3221413995119982	-0.4826331721366631	-0.1380530333580332	0.07065652240293291	0.07065652240293623	-0.1745006375246022	-0.1173358332354475	-0.06690083871962706	0.003725437243716987	-0.04431743816988699	-0.01881326755962168	-0.009696564484370295	0.1247159059802982	-0.02089460769356096	0.03396717579793615	-0.02944412797791481	0.100274927541586	0.1002749275415857	0.00637796515632552	-0.007251118653190504	0.02186844702421376	-0.01104387470057293	0.1041493566444046	-0.1018831932197156	-0.02945435542447314	-0.2303134887529326	0.1842709523685846	-0.01017341451764736	-0.04966735720356662	23.65247280474912	-2.720409512988347	3.521480824913037	0.9640170532882493	-515.6544879751439	-84.64478607285106	-39.91081998460134	-4.287010771252652	-1.847460777601088	-0.9488916914458824	12.1460646087988	-2.052546729987887	3.376160801918957	-2.952703584707874	9.7891067415453	9.789106741545222	0.5970242305383648	-0.6521279416597977	2.123883926854654	-1.098805401924115	-6.821424361968889e-08	1.498728884286826e-07	2.036175629535041e-07	4.864413346768221e-08	-2.471500127237664e-07	-9.093311398958383e-08	-1.257576462796659e-08
0.02	-0.04033772189923125	0.06850854469054311	0.8957547209545913	0.1980116015035344	-0.3224522415958993	-0.4821271700044853	-0.1384881704453565	0.07214931165507431	0.07214931165507418	-0.1744055705639343	-0.1174433688018617	-0.06657487259389785	0.003561457466077037	-0.08742135681662497	-0.03703469056449948	-0.0192043505449683	0.2459896461763599	-0.04117047646049301	0.06709313219264156	-0.05732229619258712	0.1978295280100576	0.1978295280100571	0.0126110508724503	-0.01420683437618577	0.0432423396411332	-0.02168468278153341	0.1000734971499676	-0.1001690270443885	-0.02875303454534512	-0.2257646473447479	0.1787244483522328	-0.0083456458288339	-0.04612430889839337	21.97925842363746	-3.255409972113229	3.645803427316856	1.225899343005044	-515.5804059154627	-85.31695030849586	-39.94089844580435	-4.417830027673364	-1.801097573998608	-0.963991356475536	12.26210113043286	-2.008604116435247	3.227526284735206	-2.536341283147942	9.824183011106578	9.824183011106665	0.6831212257706997	-0.7972289800887097	2.189127651731247	-1.014784951420542	-1.106859321149306e-07	1.766094557373891e-07	2.891873417283693e-07	8.587933953121581e-08	-4.83425214215344e-07	-1.452260088344488e-07	-1.987858493515326e-08
0.03	-0.04142287879891843	0.06804942888556691	0.8955156100018278	0.2010647949681632	-0.3229625461673289	-0.4812943391626155	-0.1391937549368594	0.07460476272365353	0.07460476272364908	-0.1742484493375283	-0.1176194564058909	-0.06603751311497155	0.003293357902733986	-0.1293912626912326	-0.05469981017336794	-0.02860874465087488	0.3640910754998345	-0.06076815999230296	0.09933980354119692	-0.08354966214278199	0.2928133139067778	0.2928133139067782	0.0188042727801065	-0.020956510293452	0.06413632822657316	-0.03185495606971763	0.09509106809847966	-0.09645856476029847	-0.02787253604330577	-0.2205166341962761	0.1725388784231039	-0.007625775115646582	-0.04202052495132183	20.05797012745675	-3.319801727918773	3.756763692834548	1.92034174463368	-515.4397543667678	-84.86528133904514	-39.98958748850419	-4.053768748691925	-1.735902789370506	-0.9273967738145185	11.5004483375188	-1.917058421923445	3.203214392222975	-2.629193256215562	9.268374614384834	9.268374614384916	0.5861474116963552	-0.605674715180384	2.025548764579711	-1.006167822604854	-1.386727686560424e-07	2.008829950803879e-07	3.425905696108579e-07	1.137713757682474e-07	-6.510976056258151e-07	-1.776873734120805e-07	-2.294113757059629e-08
0.04	-0.04292117433361865	0.06741632515749413	0.8951827084407719	0.2052822596268706	-0.3236651691641509	-0.4801430462408	-0.1401542648889163	0.07799663129828163	0.0779966312982816	-0.1740296509443583	-0.1178614083326284	-0.0652940108896649	0.002925951745491581	-0.1700490838193424	-0.07183227518381323	-0.03796247220344091	0.4788438849918688	-0.07963416153889769	0.1307855481820429	-0.1083073883033917	0.3851130292207018	0.3851130292207029	0.0249464842250933	-0.02737969891610996	0.08447088891718695	-0.04154600156140192	0.09010863904700586	-0.09274810247620384	-0.02699203754121383	-0.2152686210478004	0.1663533084939811	-0.006905904402451642	-0.03791674100424651	18.19536466299985	-3.394078346914394	3.868855114782694	2.470054580314998	-514.4416834929206	-84.25722627360793	-40.05533936773478	-4.155413078373804	-1.694566654313958	-0.9538580458074301	11.59237716414481	-1.862267719392221	3.067340943193325	-2.242413325230916	9.287368894547342	9.287368894547367	0.6729191332367723	-0.7319315211670525	2.077242072766021	-0.9189393921205715	-1.66360948455832e-07	2.251057503416196e-07	3.953305696398955e-07	1.414707693284439e-07	-8.17355506106779e-07	-2.096986033450271e-07	-2.591626200662193e-08
0.05	-0.04482030951856995	0.06661461425522852	0.8947562316594699	0.2106318763487294	-0.3245527984636791	-0.4786816318279865	-0.1413542965226825	0.08229892844703604	0.08229892844703754	-0.1737495854362198	-0.1181665690925927	-0.06434960852167849	0.002464207632967663	-0.209561438173469	-0.08841187774401615	-0.04734215230194391	0.5905135913923896	-0.09776583766741627	0.1613573962271238	-0.1314650527662449	0.4748891296312245	0.4748891296312264	0.03103609478299862	-0.03359880468655711	0.1043161415835049	-0.05072005973776676	0.08507920938532683	-0.08909895080070654	-0.0261788501441935	-0.2111095769006326	0.1614964449427655	-0.006394752273183416	-0.03383287821372981	16.74471513697585	-3.436508254590477	3.960641741706562	2.800005036653313	-513.5274648220665	-83.49830088769335	-40.13621044042392	-3.816681211343767	-1.624924410059663	-0.9315780432280573	10.86936207896279	-1.769800862722714	3.031062956257826	-2.317360154312771	8.7541451867499	8.754145186749986	0.5724863619692647	-0.5588025611097458	1.924147096811258	-0.9043044648732768	-1.837211520954488e-07	2.237211532968295e-07	4.31110745070769e-07	1.579148018661643e-07	-9.234286971026356e-07	-2.339025653870717e-07	-2.915936309564581e-08
